# xmcd
# 
# Track frame offsets:
#     150
#     3910
#     14027
#     34867
#     43707
#     50182
#     58512
#     69365
#     78440
#     84365
#     96527
#     109735
#     121580
#     134070
#     144485
#     162945
#     178497
#     198077
#     213257
#     228050
#     237682
#     256625
#     284532
#     295852
#     305930
#     314572
#     324712
# 
# Disc length: 4446
# 
# Revision: 56
# Processed by: cddbd v1.5.2PL0 Copyright (c) Steve Scherf et al.
# Submitted via: fre:ac v1.0.31
# 
DISCID=94115c1b
DTITLE=The Beatles - Anthology 3 - Disc 1
DYEAR=1996
DGENRE=Rock/Pop
TTITLE0=A Beginning
TTITLE1=Happiness is a warm Gun
TTITLE2=Helter Skelter
TTITLE3=Mean Mr. Mustard
TTITLE4=Polythene Pam
TTITLE5=Glass Onion (Part.1)
TTITLE6=Junk
TTITLE7=Piggies
TTITLE8=Honey Pie
TTITLE9=Don't pass me by
TTITLE10=Ob-la-di, ob-la-da
TTITLE11=Good Night
TTITLE12=Cry Baby cry
TTITLE13=Blackbird
TTITLE14=Sexy Sadie
TTITLE15=While my Guitar gently weeps
TTITLE16=Hey Jude
TTITLE17=Not guilty
TTITLE18=Mother nature's Son
TTITLE19=Glass Onion (Part.2)
TTITLE20=Rocky Raccoon
TTITLE21=What's the new Mary Jane?
TTITLE22=Step inside love-Los paranoias
TTITLE23=I'm so tired
TTITLE24=I will
TTITLE25=Why don't we do it in the Road
TTITLE26=Julia
EXTD=YEAR: 1996
EXTT0=
EXTT1=
EXTT2=
EXTT3=
EXTT4=
EXTT5=
EXTT6=
EXTT7=
EXTT8=
EXTT9=
EXTT10=
EXTT11=
EXTT12=
EXTT13=
EXTT14=
EXTT15=
EXTT16=
EXTT17=
EXTT18=
EXTT19=
EXTT20=
EXTT21=
EXTT22=
EXTT23=
EXTT24=
EXTT25=
EXTT26=
PLAYORDER=
